<svg xmlns="http://www.w3.org/2000/svg" width="25" height="24" fill="none" viewBox="0 0 25 24"><g clip-path="url(#Pcdp4sLDUva)"><path stroke="#121331" stroke-linecap="round" stroke-linejoin="round" stroke-width="1.5" d="M12.5 20.25s-5.808-6.013-7.493-7.727-1.674-4.772.021-6.476a4.37 4.37 0 0 1 6.168-.022l.042.043c.445.447.774.98.975 1.544.202.49.286.65.286.65s.085-.149.276-.65a4.6 4.6 0 0 1 1.007-1.576 4.366 4.366 0 0 1 6.188 0c1.707 1.715 1.64 4.85 0 6.497-1.638 1.647-7.47 7.717-7.47 7.717"/></g><defs><clipPath id="Pcdp4sLDUva"><path fill="#fff" d="M.5 0h24v24H.5z"/></clipPath></defs></svg>